# xmcd
#
# Track frame offsets: 
#        150
#        15659
#        29870
#        44277
#        57727
#        71036
#        87111
#        106851
#        123203
#        139603
#        155429
#        171689
#
# Disc length: 2486 seconds
#
# Revision: 0
# Processed by: cddbd v1.5.2PL0 Copyright (c) Steve Scherf et al.
# Submitted via: ExactAudioCopyFreeDBPlugin 1.0
#
DISCID=a909b40c
DTITLE=Meiko Kaji - Yadokari. Kaji Meiko Original Best 12
DYEAR=2010
DGENRE=Pop
TTITLE0=Yadokari
TTITLE1=Rakujitsu
TTITLE2=Watashi Umarete Fushiawase
TTITLE3=Yamaneko
TTITLE4=Arijigoku
TTITLE5=Kakioki
TTITLE6=Hagure-Bushi
TTITLE7=Ayatori
TTITLE8=Ah
TTITLE9=Aru Deai
TTITLE10=Onna Negai Uta
TTITLE11=Kiba no Ballad
EXTD=
EXTT0=
EXTT1=
EXTT2=
EXTT3=
EXTT4=
EXTT5=
EXTT6=
EXTT7=
EXTT8=
EXTT9=
EXTT10=
EXTT11=
PLAYORDER=
